<?xml version="1.0" encoding="utf-8"?>
<!-- Generator: Adobe Illustrator 19.0.1, SVG Export Plug-In . SVG Version: 6.00 Build 0)  -->
<svg version="1.1" id="Layer_1" xmlns="http://www.w3.org/2000/svg" xmlns:xlink="http://www.w3.org/1999/xlink" x="0px" y="0px"
	 viewBox="0 0 24 24" style="enable-background:new 0 0 24 24;" xml:space="preserve">
<style type="text/css">
	.st0{fill:#6bb1b8;}
</style>
<path class="st0" d="M13,0c-0.6-0.1-1,0-2,0v3c-0.6,0.1-1.1,0.4-1.5,0.8C8.5,4.6,8,5.7,8,6.9v0.7c0,1.7-0.9,3.4-2.5,4.6
	c-1.7,1.3-2.7,3.3-2.5,5.5c0.3,3,3,5.4,6.2,5.4H10v-2H9.2c-2.2,0-4-1.6-4.2-3.6c-0.1-1.4,0.5-2.8,1.6-3.6C8.8,12.2,10,10,10,7.6V6.9
	c0-0.6,0.3-1.2,0.7-1.5C11.1,5,11.5,4.9,12,4.9c0.1,0,0.3,0,0.4,0C13.3,5.1,14,6,14,7v0.6c0,2.4,1.2,4.7,3.3,6.2
	c1.2,0.8,1.8,2.2,1.6,3.6c-0.2,2-2,3.6-4.2,3.6H12v3h2v-1h0.8c3.2,0,5.9-2.4,6.2-5.4c0.2-2.2-0.7-4.2-2.5-5.5C16.9,11,16,9.3,16,7.6
	V7c0-1.9-1.3-3.5-3-4V2c5,0.5,9,4.8,9,9.9c0,0.6-0.1,1.2-0.2,1.8l1.7,1.7l0.1-0.3C23.9,14.1,24,13,24,12C24,5.7,19.1,0.5,13,0z"/>
</svg>
