<?xml version="1.0" ?><svg id="Layer_1" style="enable-background:new 0 0 400 400;" version="1.1" viewBox="0 0 400 400" xml:space="preserve" xmlns="http://www.w3.org/2000/svg" xmlns:xlink="http://www.w3.org/1999/xlink"><style type="text/css">
	.st0{fill:#6bb1b8;}
	.st1{fill:#6bb1b8;}
	.st2{fill:none;stroke:#999999;stroke-width:10;stroke-miterlimit:10;}
	.st3{fill:none;stroke:#999999;stroke-width:20;stroke-miterlimit:10;}
	.st4{fill:none;stroke:#999999;stroke-width:10;stroke-linecap:round;stroke-linejoin:round;stroke-miterlimit:10;}
</style><g><path class="st1" d="M263,164.9c-4.3-3.5-10.6-2.9-14.1,1.3c-3.5,4.3-2.9,10.6,1.3,14.1c5.9,4.9,9.3,12.1,9.3,19.7   c0,7.6-3.4,14.8-9.3,19.7c-4.3,3.5-4.8,9.8-1.3,14.1c2,2.4,4.8,3.6,7.7,3.6c2.2,0,4.5-0.8,6.4-2.3c10.5-8.7,16.5-21.5,16.5-35.1   C279.5,186.4,273.5,173.6,263,164.9z"/><path class="st1" d="M291.1,130.9c-4.3-3.5-10.6-2.9-14.1,1.3c-3.5,4.3-2.9,10.6,1.3,14.1c16.1,13.3,25.3,32.9,25.3,53.7   c0,20.9-9.2,40.4-25.3,53.7c-4.3,3.5-4.9,9.8-1.3,14.1c2,2.4,4.8,3.6,7.7,3.6c2.2,0,4.5-0.8,6.4-2.3c20.7-17.1,32.5-42.3,32.5-69.1   C323.7,173.2,311.8,148,291.1,130.9z"/><path class="st1" d="M318.5,97.8c-4.3-3.5-10.6-2.9-14.1,1.3s-2.9,10.6,1.3,14.1c26,21.5,40.9,53.2,40.9,86.8   c0,33.7-14.9,65.3-40.9,86.8c-4.3,3.5-4.8,9.8-1.3,14.1c2,2.4,4.8,3.6,7.7,3.6c2.2,0,4.5-0.8,6.4-2.3   c30.6-25.3,48.1-62.6,48.1-102.2C366.6,160.4,349.1,123.1,318.5,97.8z"/><path class="st1" d="M209.2,72.1c-8.8-3.7-18.5-1.9-25.3,4.7l-57.5,55.4H77.1c-9.7,0-19,4.6-24.9,12.2   c-25.1,32.8-25.1,78.5,0,111.3c5.9,7.7,15.2,12.2,24.9,12.2h49.2l57.5,55.4c4.5,4.3,10.2,6.6,16.1,6.6c3.1,0,6.2-0.6,9.3-1.9   c8.8-3.7,14.2-12,14.2-21.5V93.6C223.4,84.1,217.9,75.8,209.2,72.1z M203.4,306.4c0,1.9-1.3,2.8-2,3.1c-0.8,0.3-2.3,0.7-3.6-0.7   l-63.3-60.9H77.1c-3.5,0-6.9-1.6-9-4.4c-19.6-25.6-19.6-61.4,0-87c2.1-2.8,5.5-4.4,9-4.4h57.2l63.3-60.9c1.4-1.3,2.9-1,3.6-0.7   s2,1.2,2,3.1V306.4z"/></g></svg>
