<?xml version="1.0" ?><svg id="Layer_1" style="enable-background:new 0 0 400 400;" version="1.1" viewBox="0 0 400 400" xml:space="preserve" xmlns="http://www.w3.org/2000/svg" xmlns:xlink="http://www.w3.org/1999/xlink"><style type="text/css">
	.st0{fill:#FFFFFF;}
	.st1{fill:#6bb1b8;}
	.st2{fill:none;stroke:#333333;stroke-width:10;stroke-miterlimit:10;}
	.st3{fill:none;stroke:#333333;stroke-width:20;stroke-miterlimit:10;}
	.st4{fill:none;stroke:#333333;stroke-width:10;stroke-linecap:round;stroke-linejoin:round;stroke-miterlimit:10;}
</style><g><path class="st1" d="M271.5,179.2L255.9,192c2.4,3.9,3.6,8.4,3.6,13.1c0,7.6-3.4,14.8-9.3,19.7c-4.3,3.5-4.8,9.8-1.3,14.1   c2,2.4,4.8,3.6,7.7,3.6c2.3,0,4.5-0.8,6.4-2.3c10.5-8.7,16.5-21.5,16.5-35.1C279.5,195.7,276.7,186.7,271.5,179.2z"/><path class="st1" d="M305.7,151.2l-15.5,12.7c8.7,11.8,13.5,26.2,13.5,41.2c0,20.9-9.2,40.4-25.3,53.7c-4.3,3.5-4.9,9.8-1.3,14.1   c2,2.4,4.8,3.6,7.7,3.6c2.2,0,4.5-0.8,6.4-2.3c20.7-17.1,32.5-42.3,32.5-69.1C323.7,185.4,317.3,166.6,305.7,151.2z"/><path class="st1" d="M339,124l-15.5,12.7c14.9,19.5,23.1,43.4,23.1,68.4c0,33.7-14.9,65.3-40.9,86.8c-4.3,3.5-4.9,9.8-1.3,14.1   c2,2.4,4.8,3.6,7.7,3.6c2.3,0,4.5-0.8,6.4-2.3c30.6-25.3,48.1-62.6,48.1-102.2C366.6,175.4,356.8,147,339,124z"/><path class="st1" d="M56.1,264.9l16-13.1c-1.6-0.8-3-1.9-4.1-3.3c-19.6-25.6-19.6-61.4,0-87c2.1-2.8,5.5-4.4,9.1-4.4h57.2   l63.3-60.9c1.4-1.3,2.9-1,3.6-0.7c0.8,0.3,2,1.2,2,3.1v45.8l20-16.4V98.7c0-9.5-5.4-17.8-14.2-21.5c-8.8-3.7-18.5-1.9-25.3,4.7   l-57.5,55.3H77.1c-9.7,0-19,4.6-24.9,12.2c-25.1,32.8-25.1,78.5,0,111.3C53.4,262.3,54.7,263.7,56.1,264.9z"/><path class="st1" d="M253.3,168.3L253.3,168.3l23.2-19l15.4-12.6l18-14.7l15.6-12.8l21.3-17.4c6.4-5.2,7.4-14.7,2.1-21.1   c-5.2-6.4-14.7-7.4-21.1-2.1l-104.5,85.5l-20,16.4L167.1,200l-14.8,12.1l-50,40.9l-24.4,20l-34.4,28.2c-6.4,5.2-7.4,14.7-2.1,21.1   c3,3.6,7.3,5.5,11.6,5.5c3.3,0,6.7-1.1,9.5-3.4l48.2-39.4l14.6-12h1l57.5,55.4c4.5,4.3,10.2,6.6,16.1,6.6c3.1,0,6.2-0.6,9.3-1.9   c8.8-3.7,14.2-12,14.2-21.5V192.7l8.2-6.7l16.5-13.5L253.3,168.3z M203.4,311.5c0,1.9-1.3,2.8-2,3.1c-0.8,0.3-2.3,0.7-3.6-0.7   l-56.3-54.2l62-50.7V311.5z"/></g></svg>
